{
  "accessors": [
    {
      "bufferView": 2,
      "componentType": 5126,
      "count": 345,
      "max": [
        0.12844200432300568,
        -1.3458800315856934,
        1.54339599609375
      ],
      "min": [
        -0.12844200432300568,
        -1.4880080223083496,
        1.2718570232391357
      ],
      "type": "VEC3"
    },
    {
      "bufferView": 2,
      "byteOffset": 4140,
      "componentType": 5126,
      "count": 345,
      "max": [
        1.0,
        0.9998857378959656,
        0.9998636245727539
      ],
      "min": [
        -1.0,
        -0.999617874622345,
        -0.9970903396606445
      ],
      "type": "VEC3"
    },
    {
      "bufferView": 1,
      "componentType": 5126,
      "count": 345,
      "max": [
        0.8804889917373657,
        1.0041040182113647
      ],
      "min": [
        0.1277790069580078,
        -0.001348000019788742
      ],
      "type": "VEC2"
    },
    {
      "bufferView": 0,
      "componentType": 5125,
      "count": 1632,
      "type": "SCALAR"
    },
    {
      "bufferView": 2,
      "byteOffset": 8280,
      "componentType": 5126,
      "count": 1259,
      "max": [
        2.0605270862579346,
        1.4062529802322388,
        2.0855119228363037
      ],
      "min": [
        -2.0605270862579346,
        -1.3678020238876343,
        0.35148701071739197
      ],
      "type": "VEC3"
    },
    {
      "bufferView": 2,
      "byteOffset": 23388,
      "componentType": 5126,
      "count": 1259,
      "max": [
        1.0,
        1.0,
        1.0
      ],
      "min": [
        -1.0,
        -1.0,
        -1.0
      ],
      "type": "VEC3"
    },
    {
      "bufferView": 1,
      "byteOffset": 2760,
      "componentType": 5126,
      "count": 1259,
      "max": [
        1.0,
        1.0
      ],
      "min": [
        0.0,
        0.0
      ],
      "type": "VEC2"
    },
    {
      "bufferView": 0,
      "byteOffset": 6528,
      "componentType": 5125,
      "count": 5520,
      "type": "SCALAR"
    },
    {
      "bufferView": 2,
      "byteOffset": 38496,
      "componentType": 5126,
      "count": 308,
      "max": [
        2.0348730087280273,
        1.300137996673584,
        2.063525915145874
      ],
      "min": [
        -2.0348730087280273,
        -1.4818940162658691,
        0.6304489970207214
      ],
      "type": "VEC3"
    },
    {
      "bufferView": 2,
      "byteOffset": 42192,
      "componentType": 5126,
      "count": 308,
      "max": [
        1.0,
        1.0,
        1.0
      ],
      "min": [
        -1.0,
        -1.0,
        -1.0
      ],
      "type": "VEC3"
    },
    {
      "bufferView": 1,
      "byteOffset": 12832,
      "componentType": 5126,
      "count": 308,
      "max": [
        0.9645609855651855,
        0.9980080127716064
      ],
      "min": [
        0.0018810000037774444,
        0.0019920000340789557
      ],
      "type": "VEC2"
    },
    {
      "bufferView": 0,
      "byteOffset": 28608,
      "componentType": 5125,
      "count": 990,
      "type": "SCALAR"
    }
  ],
  "asset": {
    "extras": {
      "author": "JalenJacobson (https://sketchfab.com/JalenJacobson)",
      "license": "CC-BY-4.0 (http://creativecommons.org/licenses/by/4.0/)",
      "source": "https://sketchfab.com/3d-models/box-61c06f8bb53749249db7c36eba8c4db9",
      "title": "Box"
    },
    "generator": "Sketchfab-12.65.0",
    "version": "2.0"
  },
  "bufferViews": [
    {
      "buffer": 0,
      "byteLength": 32568,
      "name": "floatBufferViews",
      "target": 34963
    },
    {
      "buffer": 0,
      "byteLength": 15296,
      "byteOffset": 32568,
      "byteStride": 8,
      "name": "floatBufferViews",
      "target": 34962
    },
    {
      "buffer": 0,
      "byteLength": 45888,
      "byteOffset": 47864,
      "byteStride": 12,
      "name": "floatBufferViews",
      "target": 34962
    }
  ],
  "buffers": [
    {
      "byteLength": 93752,
      "uri": "scene.bin"
    }
  ],
  "images": [
    {
      "uri": "textures/initialShadingGroup_baseColor.jpeg"
    },
    {
      "uri": "textures/lambert2SG_baseColor.jpeg"
    },
    {
      "uri": "textures/lambert3SG_baseColor.jpeg"
    }
  ],
  "materials": [
    {
      "doubleSided": true,
      "name": "initialShadingGroup",
      "pbrMetallicRoughness": {
        "baseColorTexture": {
          "index": 0
        },
        "metallicFactor": 0.5626905488,
        "roughnessFactor": 0.0
      }
    },
    {
      "doubleSided": true,
      "name": "lambert2SG",
      "pbrMetallicRoughness": {
        "baseColorTexture": {
          "index": 1
        },
        "roughnessFactor": 0.6
      }
    },
    {
      "doubleSided": true,
      "name": "lambert3SG",
      "pbrMetallicRoughness": {
        "baseColorTexture": {
          "index": 2
        },
        "metallicFactor": 0.770007622,
        "roughnessFactor": 0.4773246951
      }
    }
  ],
  "meshes": [
    {
      "name": "Object_0",
      "primitives": [
        {
          "attributes": {
            "NORMAL": 1,
            "POSITION": 0,
            "TEXCOORD_0": 2
          },
          "indices": 3,
          "material": 0,
          "mode": 4
        }
      ]
    },
    {
      "name": "Object_1",
      "primitives": [
        {
          "attributes": {
            "NORMAL": 5,
            "POSITION": 4,
            "TEXCOORD_0": 6
          },
          "indices": 7,
          "material": 1,
          "mode": 4
        }
      ]
    },
    {
      "name": "Object_2",
      "primitives": [
        {
          "attributes": {
            "NORMAL": 9,
            "POSITION": 8,
            "TEXCOORD_0": 10
          },
          "indices": 11,
          "material": 2,
          "mode": 4
        }
      ]
    }
  ],
  "nodes": [
    {
      "children": [
        1
      ],
      "matrix": [
        1.0,
        0.0,
        0.0,
        0.0,
        0.0,
        2.220446049250313e-16,
        -1.0,
        0.0,
        0.0,
        1.0,
        2.220446049250313e-16,
        0.0,
        0.0,
        0.0,
        0.0,
        1.0
      ],
      "name": "Sketchfab_model"
    },
    {
      "children": [
        2,
        3,
        4
      ],
      "name": "78737a3805a04248a230000f439b2b3c.obj.cleaner.materialmerger.gles"
    },
    {
      "mesh": 0,
      "name": "Object_2"
    },
    {
      "mesh": 1,
      "name": "Object_3"
    },
    {
      "mesh": 2,
      "name": "Object_4"
    }
  ],
  "samplers": [
    {
      "magFilter": 9729,
      "minFilter": 9987,
      "wrapS": 10497,
      "wrapT": 10497
    }
  ],
  "scene": 0,
  "scenes": [
    {
      "name": "Sketchfab_Scene",
      "nodes": [
        0
      ]
    }
  ],
  "textures": [
    {
      "sampler": 0,
      "source": 0
    },
    {
      "sampler": 0,
      "source": 1
    },
    {
      "sampler": 0,
      "source": 2
    }
  ]
}
